<svg width="1434" height="1024" fill="none" xmlns="http://www.w3.org/2000/svg"><path d="M99.25 0C132 25.859 115.625 62.06 1 77.576M230.25 0C290.291 38.788 328.5 125.673 1 162.909M557.75 0C530.458 67.232 384.175 203.248 17.375 209.454M803.374 0C759.708 72.404 541.375 228.072 17.375 271.515M1098.12 0C934.374 87.92 583.95 263.757 492.25 263.757c-91.7 0-365.708 149.98-491.25 224.97M1425.62 0C606.875 235.313-696.574 769.551 639.625 1024M1 915.392C28.292 949.008 112.35 1017.79 230.25 1024M1442 93.091c-687.749 214.626-1653.874 588.024-16.37 364.606m0-287.029c-387.55 121.535-1080.755 403.393 0 224.969m-.01 116.362C765.166 548.201-15.375 713.696 852.499 1024M1442 605.091c-425.75 23.272-1228.125 46.545-491.25 411.149m474.87-318.058C1109.04 705.94 492.249 659.394 1049 1024m376.62-256.001c-207.41 18.101-638.621-62.06-262 256.001M1442 847.196c-138.78 14.032-399-92.611-173.48 176.804m124.35 0h32.75" stroke="#F1DED0" stroke-opacity=".29" stroke-width=".5" stroke-linecap="round"/></svg>